<svg width="155" height="36" viewBox="0 0 155 36" fill="none" xmlns="http://www.w3.org/2000/svg">
<path d="M14.625 35.312C12.467 35.312 10.53 34.948 8.814 34.22C7.124 33.492 5.694 32.491 4.524 31.217C3.328 29.917 2.405 28.383 1.755 26.615C1.131 24.847 0.819 22.975 0.819 20.999C0.819 18.841 1.17 16.878 1.872 15.11C2.6 13.316 3.601 11.782 4.875 10.508C6.175 9.234 7.722 8.246 9.516 7.544C11.31 6.816 13.247 6.452 15.327 6.452C16.497 6.452 17.615 6.556 18.681 6.764C19.747 6.972 20.748 7.245 21.684 7.583C22.62 7.921 23.491 8.272 24.297 8.636V12.107L21.645 12.263C20.891 11.847 19.955 11.535 18.837 11.327C17.719 11.093 16.64 10.976 15.6 10.976C13.676 10.976 12.012 11.392 10.608 12.224C9.23 13.056 8.177 14.213 7.449 15.695C6.721 17.177 6.357 18.919 6.357 20.921C6.357 22.819 6.695 24.522 7.371 26.03C8.047 27.512 9.048 28.682 10.374 29.54C11.7 30.398 13.312 30.827 15.21 30.827C16.276 30.827 17.277 30.671 18.213 30.359C19.175 30.021 20.085 29.462 20.943 28.682C21.073 28.578 21.216 28.5 21.372 28.448C21.528 28.37 21.684 28.331 21.84 28.331C22.126 28.331 22.373 28.435 22.581 28.643L24.726 30.905C23.634 32.283 22.243 33.362 20.553 34.142C18.863 34.922 16.887 35.312 14.625 35.312ZM20.514 11.21L24.297 12.107V15.539H22.269C21.931 15.539 21.671 15.448 21.489 15.266C21.307 15.058 21.177 14.772 21.099 14.408L20.514 11.21ZM37.0098 14.642C39.0378 14.642 40.7928 15.071 42.2748 15.929C43.7568 16.761 44.9008 17.957 45.7068 19.517C46.5128 21.051 46.9158 22.858 46.9158 24.938C46.9158 27.018 46.5128 28.838 45.7068 30.398C44.9008 31.932 43.7568 33.141 42.2748 34.025C40.7928 34.883 39.0378 35.312 37.0098 35.312C35.0078 35.312 33.2528 34.883 31.7448 34.025C30.2628 33.141 29.1058 31.932 28.2738 30.398C27.4418 28.838 27.0258 27.018 27.0258 24.938C27.0258 22.858 27.4418 21.051 28.2738 19.517C29.1058 17.957 30.2628 16.761 31.7448 15.929C33.2528 15.071 35.0078 14.642 37.0098 14.642ZM37.0098 31.568C38.6478 31.568 39.8568 31.009 40.6368 29.891C41.4168 28.773 41.8068 27.135 41.8068 24.977C41.8068 23.521 41.6378 22.312 41.2998 21.35C40.9618 20.362 40.4288 19.621 39.7008 19.127C38.9988 18.633 38.1018 18.386 37.0098 18.386C35.9178 18.386 35.0078 18.646 34.2798 19.166C33.5518 19.66 33.0058 20.401 32.6418 21.389C32.3038 22.351 32.1348 23.547 32.1348 24.977C32.1348 27.083 32.5248 28.708 33.3048 29.852C34.1108 30.996 35.3458 31.568 37.0098 31.568ZM57.7791 35.312C56.3231 35.312 55.0881 34.987 54.0741 34.337C53.0601 33.661 52.2931 32.764 51.7731 31.646C51.2531 30.502 50.9931 29.189 50.9931 27.707V14.954H55.9461V27.707C55.9461 28.929 56.2191 29.878 56.7651 30.554C57.3111 31.204 58.1431 31.529 59.2611 31.529C60.0931 31.529 60.8601 31.347 61.5621 30.983C62.2641 30.619 62.9401 30.112 63.5901 29.462V14.954H68.5041V35H65.5011C64.8251 35 64.4091 34.701 64.2531 34.103L63.9411 32.543C63.1091 33.349 62.1991 34.012 61.2111 34.532C60.2231 35.052 59.0791 35.312 57.7791 35.312ZM67.5681 35L68.0751 31.061L70.2981 31.529C70.6621 31.607 70.9351 31.737 71.1171 31.919C71.3251 32.101 71.4291 32.374 71.4291 32.738V35H67.5681ZM51.9291 14.954L51.4611 18.893L49.1991 18.425C48.8611 18.347 48.5881 18.217 48.3801 18.035C48.1721 17.853 48.0681 17.58 48.0681 17.216V14.954H51.9291ZM64.5261 14.954L64.0191 18.893L61.7961 18.425C61.4321 18.347 61.1461 18.217 60.9381 18.035C60.7561 17.853 60.6651 17.58 60.6651 17.216V14.954H64.5261ZM76.0747 35V14.954H79.0777C79.7537 14.954 80.1697 15.253 80.3257 15.851L80.6377 17.45C81.4697 16.592 82.3797 15.916 83.3677 15.422C84.3557 14.902 85.5127 14.642 86.8387 14.642C88.2947 14.642 89.5167 14.967 90.5047 15.617C91.5187 16.267 92.2857 17.164 92.8057 18.308C93.3257 19.452 93.5857 20.765 93.5857 22.247V35H88.6327V22.247C88.6327 21.051 88.3597 20.115 87.8137 19.439C87.2677 18.763 86.4357 18.425 85.3177 18.425C84.5117 18.425 83.7447 18.62 83.0167 19.01C82.3147 19.374 81.6387 19.881 80.9887 20.531V35H76.0747ZM73.1497 35V32.738C73.1497 32.374 73.2407 32.101 73.4227 31.919C73.6307 31.737 73.9167 31.607 74.2807 31.529L76.5037 31.061L77.0107 35H73.1497ZM80.0527 35L80.5597 31.061L82.7827 31.529C83.1467 31.607 83.4197 31.737 83.6017 31.919C83.8097 32.101 83.9137 32.374 83.9137 32.738V35H80.0527ZM92.6497 35L93.1177 31.061L95.3797 31.529C95.7177 31.607 95.9907 31.737 96.1987 31.919C96.4067 32.101 96.5107 32.374 96.5107 32.738V35H92.6497ZM77.0107 14.954L76.5037 18.893L74.2807 18.425C73.9167 18.347 73.6307 18.217 73.4227 18.035C73.2407 17.853 73.1497 17.58 73.1497 17.216V14.954H77.0107ZM106.01 35.312C104.268 35.312 102.916 34.818 101.954 33.83C101.018 32.842 100.55 31.477 100.55 29.735V18.581H98.5222C98.2622 18.581 98.0412 18.503 97.8592 18.347C97.6772 18.191 97.5862 17.944 97.5862 17.606V15.656L100.823 15.11L101.837 9.689C101.941 9.143 102.305 8.87 102.929 8.87H105.464V15.149H110.729V18.581H105.464V29.423C105.464 30.047 105.62 30.541 105.932 30.905C106.244 31.243 106.66 31.412 107.18 31.412C107.466 31.412 107.726 31.36 107.96 31.256C108.194 31.126 108.415 31.009 108.623 30.905C108.831 30.801 109.013 30.749 109.169 30.749C109.403 30.749 109.611 30.892 109.793 31.178L111.275 33.557C110.573 34.103 109.767 34.532 108.857 34.844C107.947 35.156 106.998 35.312 106.01 35.312ZM122.93 35.312C120.928 35.312 119.186 34.87 117.704 33.986C116.222 33.076 115.065 31.815 114.233 30.203C113.427 28.565 113.024 26.68 113.024 24.548C113.024 22.676 113.427 20.999 114.233 19.517C115.039 18.009 116.17 16.826 117.626 15.968C119.082 15.084 120.772 14.642 122.696 14.642C124.438 14.642 125.959 15.019 127.259 15.773C128.585 16.501 129.599 17.541 130.301 18.893C131.029 20.245 131.393 21.857 131.393 23.729C131.393 24.431 131.328 24.925 131.198 25.211C131.068 25.471 130.756 25.601 130.262 25.601H117.977C117.977 25.679 117.977 25.757 117.977 25.835C117.977 25.913 117.99 25.991 118.016 26.069C118.224 27.889 118.783 29.254 119.693 30.164C120.629 31.074 121.851 31.529 123.359 31.529C124.061 31.529 124.763 31.386 125.465 31.1C126.193 30.814 126.856 30.528 127.454 30.242C128.052 29.93 128.533 29.774 128.897 29.774C129.261 29.774 129.56 29.917 129.794 30.203L131.237 31.997C130.535 32.803 129.716 33.453 128.78 33.947C127.87 34.441 126.908 34.792 125.894 35C124.906 35.208 123.918 35.312 122.93 35.312ZM118.055 22.676H126.986C126.986 21.376 126.635 20.297 125.933 19.439C125.231 18.581 124.191 18.152 122.813 18.152C121.435 18.152 120.343 18.542 119.537 19.322C118.757 20.102 118.263 21.22 118.055 22.676ZM136.403 35V14.954H139.289C139.809 14.954 140.16 15.058 140.342 15.266C140.55 15.448 140.693 15.76 140.771 16.202L141.044 18.581C141.772 17.333 142.604 16.358 143.54 15.656C144.502 14.954 145.581 14.603 146.777 14.603C147.271 14.603 147.713 14.668 148.103 14.798C148.519 14.902 148.883 15.058 149.195 15.266L148.571 18.932C148.545 19.166 148.454 19.335 148.298 19.439C148.168 19.517 147.999 19.556 147.791 19.556C147.661 19.556 147.362 19.517 146.894 19.439C146.426 19.361 146.01 19.322 145.646 19.322C144.658 19.322 143.813 19.595 143.111 20.141C142.409 20.687 141.811 21.48 141.317 22.52V35H136.403ZM140.381 35L140.888 31.061L143.111 31.529C143.475 31.607 143.748 31.737 143.93 31.919C144.138 32.101 144.242 32.374 144.242 32.738V35H140.381ZM133.478 35V32.738C133.478 32.374 133.569 32.101 133.751 31.919C133.959 31.737 134.245 31.607 134.609 31.529L136.832 31.061L137.339 35H133.478ZM137.339 14.954L136.832 18.893L134.609 18.425C134.245 18.347 133.959 18.217 133.751 18.035C133.569 17.853 133.478 17.58 133.478 17.216V14.954H137.339Z" fill="#003399"/>
</svg>
